<?xml version="1.0" standalone="no"?>
<!DOCTYPE svg PUBLIC "-//W3C//DTD SVG 20010904//EN"
 "http://www.w3.org/TR/2001/REC-SVG-20010904/DTD/svg10.dtd">
<svg version="1.0" xmlns="http://www.w3.org/2000/svg"
 width="790.000000pt" height="541.000000pt" viewBox="0 0 790.000000 541.000000"
 preserveAspectRatio="xMidYMid meet">

<g transform="translate(0.000000,541.000000) scale(0.100000,-0.100000)"
fill="#000000" stroke="none">
<path d="M0 2705 l0 -2705 3950 0 3950 0 0 2705 0 2705 -3950 0 -3950 0 0
-2705z m4193 1418 c-7 -2 -19 -2 -25 0 -7 3 -2 5 12 5 14 0 19 -2 13 -5z m217
-40 c138 -55 241 -144 295 -255 19 -38 29 -66 24 -63 -5 4 -9 -2 -9 -12 0 -10
-4 -24 -9 -32 -14 -21 -35 0 -49 48 -10 33 -18 41 -50 50 -34 10 -34 10 -4 6
43 -6 42 11 -6 72 -72 90 -200 174 -321 209 l-46 14 55 -6 c30 -3 84 -17 120
-31z m-402 -144 c-10 -5 -18 -15 -18 -21 0 -9 3 -9 12 0 19 19 28 14 45 -25
19 -46 19 -160 -2 -249 -15 -63 -83 -224 -95 -224 -4 0 3 21 16 48 13 26 24
54 24 63 0 9 7 22 16 30 11 9 15 27 13 58 -1 25 -2 64 -1 85 2 38 3 39 18 20
14 -18 15 -18 8 6 -4 14 -10 27 -14 30 -12 8 -19 50 -8 50 5 0 2 7 -6 16 -15
14 -17 21 -20 57 -1 6 -5 15 -10 18 -13 10 4 49 22 49 16 -1 15 -2 0 -11z
m505 -116 c-7 -2 -19 -2 -25 0 -7 3 -2 5 12 5 14 0 19 -2 13 -5z m296 -118
c143 -156 214 -392 177 -588 -15 -75 -50 -157 -86 -194 -9 -10 -22 -48 -29
-83 -7 -36 -31 -103 -54 -150 -55 -114 -187 -250 -293 -303 -141 -71 -274 -87
-336 -42 -41 30 -36 49 10 42 105 -17 153 -19 203 -7 60 14 178 69 224 104
121 93 216 239 239 369 l7 37 -37 0 -36 0 17 28 c10 15 24 31 32 35 22 13 15
69 -16 122 -37 64 -92 116 -161 154 -65 36 -60 41 8 7 66 -34 136 -107 169
-176 15 -32 32 -59 36 -59 11 -1 43 74 62 144 45 176 -18 420 -143 554 -26 28
-45 51 -41 51 3 0 25 -20 48 -45z m-126 -115 c-8 -30 -85 -96 -154 -131 -72
-36 -133 -55 -204 -64 -122 -15 -118 -13 -111 -48 9 -43 63 -157 74 -157 5 0
22 9 38 21 l29 21 -28 -26 c-26 -24 -27 -27 -13 -54 24 -47 147 -155 217 -190
36 -19 86 -36 110 -39 60 -8 79 -19 79 -48 0 -33 -29 -40 -96 -20 -102 30
-212 113 -295 226 -29 38 -55 69 -58 69 -4 0 -23 -20 -43 -43 -50 -60 -123
-209 -138 -282 -6 -33 -16 -81 -22 -107 -7 -34 -7 -57 1 -79 6 -18 11 -42 11
-53 0 -12 9 -39 20 -60 15 -31 17 -42 7 -55 -7 -9 -19 -16 -27 -16 -19 0 -46
58 -30 63 7 3 6 8 -4 16 -9 7 -17 36 -21 76 -5 50 -4 62 5 50 9 -12 11 -9 6
15 -7 41 21 157 55 234 16 35 29 67 29 72 0 4 -12 10 -27 12 -23 3 -21 4 9 6
30 1 40 7 52 29 8 15 37 53 65 84 l50 58 -26 56 c-14 32 -31 78 -37 103 -13
50 -27 58 -101 60 -22 1 -47 6 -55 12 -11 7 5 9 58 7 71 -4 72 -3 73 22 2 23
2 23 6 3 5 -28 25 -29 120 -7 98 22 201 75 256 131 26 26 47 51 47 55 0 5 10
13 23 17 28 11 57 -12 50 -39z m-676 -2 c-3 -8 -6 -5 -6 6 -1 11 2 17 5 13 3
-3 4 -12 1 -19z m-86 -221 c-10 -9 -11 -8 -5 6 3 10 9 15 12 12 3 -3 0 -11 -7
-18z m686 -103 c-3 -3 -12 -4 -19 -1 -8 3 -5 6 6 6 11 1 17 -2 13 -5z m-699
-259 c-3 -3 -9 2 -12 12 -6 14 -5 15 5 6 7 -7 10 -15 7 -18z m117 5 l20 -9
-20 0 c-11 0 -27 4 -35 9 -13 9 -13 10 0 9 8 0 24 -4 35 -9z m362 -382 c-2
-18 -4 -6 -4 27 0 33 2 48 4 33 2 -15 2 -42 0 -60z m-10 -70 c-3 -8 -6 -5 -6
6 -1 11 2 17 5 13 3 -3 4 -12 1 -19z m-1380 -592 c36 -18 57 -50 49 -72 -4
-10 -2 -12 6 -8 23 15 -1 -69 -29 -98 l-27 -28 29 -58 c16 -31 31 -60 33 -64
2 -5 -14 -8 -35 -8 -36 0 -40 3 -69 58 -29 54 -32 57 -70 57 -39 0 -39 0 -36
-37 5 -60 -4 -78 -43 -78 -21 0 -35 6 -39 16 -8 21 -8 308 1 329 5 15 18 17
102 13 62 -3 107 -11 128 -22z m402 -78 c22 -57 54 -136 71 -177 16 -40 30
-75 30 -77 0 -2 -22 -4 -50 -4 -49 0 -49 0 -61 40 l-12 40 -64 0 -63 0 -16
-40 c-16 -39 -18 -40 -64 -40 l-48 0 69 170 c37 93 71 174 74 180 3 5 26 10
50 10 l43 0 41 -102z m481 7 c41 -52 78 -94 83 -95 4 0 7 43 7 95 l0 95 45 0
45 0 0 -180 0 -180 -42 1 c-41 0 -46 3 -93 66 -27 36 -62 81 -77 100 l-28 36
0 -102 0 -101 -45 0 -45 0 0 180 0 180 38 0 c36 0 42 -5 112 -95z m510 50 l0
-45 -95 0 c-95 0 -95 0 -95 -25 0 -24 2 -25 65 -25 l65 0 0 -45 0 -45 -65 0
c-58 0 -65 -2 -65 -20 0 -19 7 -20 95 -20 l95 0 0 -45 0 -45 -140 0 -140 0 0
180 0 180 140 0 140 0 0 -45z m360 0 l0 -45 -55 0 -55 0 0 -135 0 -135 -45 0
-45 0 0 135 0 135 -55 0 -55 0 0 45 0 45 155 0 155 0 0 -45z m164 -7 c8 -29
23 -80 32 -112 l17 -60 31 100 c17 54 35 105 39 112 5 6 24 12 42 12 l34 0 32
-105 c18 -58 36 -105 40 -105 4 0 10 12 13 28 32 134 53 182 81 182 18 0 21
-5 18 -24 -3 -13 0 -27 6 -30 6 -4 11 -2 11 5 0 7 3 10 6 7 6 -7 -26 -130 -36
-138 -4 -3 -10 -23 -14 -45 -4 -22 -14 -61 -22 -87 -15 -46 -17 -48 -54 -48
-20 0 -42 6 -47 13 -5 6 -22 54 -38 105 -16 51 -32 89 -36 85 -3 -5 -12 -26
-19 -48 -6 -22 -21 -66 -33 -98 l-20 -58 -45 3 -45 3 -48 165 c-27 91 -48 171
-49 178 0 8 15 12 45 12 l44 0 15 -52z m416 31 c0 -6 -4 -7 -10 -4 -5 3 -10
11 -10 16 0 6 5 7 10 4 6 -3 10 -11 10 -16z m-2633 -125 c6 -24 6 -41 2 -38
-5 3 -12 23 -15 44 -4 22 -13 45 -20 51 -8 6 -14 17 -14 23 1 24 38 -39 47
-80z m-102 56 c3 -5 1 -10 -4 -10 -6 0 -11 5 -11 10 0 6 2 10 4 10 3 0 8 -4
11 -10z m35 -46 c0 -8 -4 -12 -10 -9 -5 3 -10 10 -10 16 0 5 5 9 10 9 6 0 10
-7 10 -16z m50 -59 c0 -5 -5 -3 -10 5 -8 13 -10 12 -10 -4 0 -11 -3 -17 -6
-13 -3 3 -3 15 1 28 6 17 9 19 16 8 5 -8 9 -18 9 -24z m2728 -40 c0 -16 -2
-15 -8 5 -4 14 -8 36 -8 50 0 22 1 22 8 -5 4 -16 8 -39 8 -50z m-2717 -8 c-6
-18 -27 -49 -46 -67 -43 -41 -46 -34 -5 10 16 18 27 37 23 43 -3 6 -1 7 5 3 8
-5 12 1 12 17 0 13 3 27 7 30 13 14 15 -2 4 -36z m2747 -42 c-3 -3 -9 2 -12
12 -6 14 -5 15 5 6 7 -7 10 -15 7 -18z m-3251 -247 c7 -6 13 -19 13 -29 0 -23
-35 -26 -44 -4 -3 8 -12 15 -21 15 -27 0 -16 -18 23 -37 28 -14 38 -25 40 -47
4 -35 -10 -46 -60 -46 -52 0 -89 40 -51 54 10 4 20 1 25 -9 9 -16 48 -21 48
-7 0 5 -18 17 -39 27 -45 20 -56 38 -41 65 21 39 72 47 107 18z m4040 0 c7 -6
13 -19 13 -29 0 -23 -35 -26 -44 -4 -3 8 -12 15 -21 15 -27 0 -16 -18 23 -37
28 -14 38 -25 40 -47 4 -35 -10 -46 -60 -46 -52 0 -90 42 -52 57 10 4 22 -1
29 -10 7 -10 20 -17 29 -17 29 0 17 20 -23 36 -43 17 -53 31 -44 62 9 38 75
50 110 20z m-4337 -68 c0 -73 -2 -80 -20 -80 -18 0 -20 7 -20 80 0 73 2 80 20
80 18 0 20 -7 20 -80z m60 73 c1 -5 16 -26 34 -47 l34 -40 -5 47 c-5 45 -4 47
19 47 25 0 25 -2 27 -80 2 -77 1 -80 -21 -80 -15 0 -33 14 -53 41 l-30 41 -3
-41 c-3 -33 -7 -41 -23 -41 -17 0 -19 7 -19 80 0 73 2 80 20 80 11 0 20 -3 20
-7z m382 -5 c45 -36 18 -98 -42 -98 -25 0 -30 -4 -30 -25 0 -18 -5 -25 -20
-25 -18 0 -20 7 -20 80 l0 80 48 0 c27 0 55 -6 64 -12z m87 -68 c2 -79 2 -80
-24 -80 -25 0 -25 1 -23 80 1 75 2 80 23 80 21 0 22 -5 24 -80z m131 60 c24
-24 25 -39 6 -65 -12 -17 -12 -24 0 -47 14 -26 13 -28 -6 -28 -12 0 -25 10
-32 25 -14 31 -43 29 -42 -3 0 -17 -5 -22 -23 -22 -22 0 -23 3 -23 80 l0 80
50 0 c37 0 55 -5 70 -20z m80 -60 c0 -73 -2 -80 -20 -80 -18 0 -20 7 -20 80 0
73 2 80 20 80 18 0 20 -7 20 -80z m60 73 c1 -5 16 -26 35 -48 l34 -40 -5 48
c-6 45 -5 47 20 47 26 0 26 0 26 -80 0 -76 -1 -80 -22 -80 -15 0 -33 15 -53
43 l-30 42 -3 -42 c-3 -35 -7 -43 -23 -43 -17 0 -19 7 -19 80 0 73 2 80 20 80
11 0 20 -3 20 -7z m267 -15 c13 -12 23 -25 23 -30 0 -12 -38 -10 -60 4 -28 18
-55 -1 -55 -38 0 -26 3 -29 35 -31 19 0 25 1 13 4 -13 2 -23 11 -23 19 0 10
13 14 45 14 38 0 45 -3 45 -20 0 -50 -88 -79 -137 -45 -41 29 -38 98 6 132 26
20 82 16 108 -9z m185 -20 l38 -43 0 43 c0 35 3 42 19 42 17 0 20 -9 23 -80 3
-75 2 -80 -17 -80 -11 0 -32 17 -49 40 -16 21 -32 37 -35 35 -4 -2 -6 -19 -5
-39 2 -32 -1 -36 -22 -36 -23 0 -24 2 -24 80 0 70 2 80 18 80 9 0 34 -19 54
-42z m234 -30 c16 -40 31 -76 32 -80 2 -5 -8 -8 -21 -8 -16 0 -27 6 -29 16 -5
25 -56 27 -63 3 -4 -12 -15 -19 -31 -19 l-24 0 16 38 c9 20 23 56 31 80 12 32
20 42 37 42 19 0 28 -13 52 -72z m194 52 c0 -15 -7 -20 -25 -20 -24 0 -25 -3
-25 -60 0 -53 -2 -60 -20 -60 -18 0 -20 7 -20 60 0 57 -1 60 -25 60 -18 0 -25
5 -25 20 0 18 7 20 70 20 63 0 70 -2 70 -20z m62 -37 c2 -48 6 -58 22 -61 28
-6 46 25 46 75 0 37 3 43 21 43 20 0 21 -4 17 -66 -5 -77 -20 -94 -79 -94 -51
0 -69 27 -69 102 0 51 2 58 20 58 16 0 19 -8 22 -57z m247 25 c13 -23 13 -30
1 -53 -11 -21 -12 -30 -2 -45 16 -26 15 -30 -6 -30 -10 0 -25 11 -32 25 -7 14
-19 25 -27 25 -7 0 -13 -11 -13 -25 0 -20 -5 -25 -25 -25 -25 0 -25 1 -25 80
l0 81 57 -3 c50 -3 59 -6 72 -30z m161 28 c0 -24 -17 -36 -51 -36 -21 0 -39
-4 -39 -10 0 -5 14 -10 30 -10 23 0 30 -4 30 -20 0 -16 -7 -20 -30 -20 -46 0
-36 -18 12 -22 30 -2 42 -8 44 -20 2 -16 -7 -18 -62 -18 l-64 0 0 80 0 80 65
0 c36 0 65 -2 65 -4z m128 -8 c7 -7 12 -20 12 -30 0 -22 -35 -25 -44 -3 -3 8
-12 15 -21 15 -27 0 -16 -18 23 -37 28 -14 38 -25 40 -47 4 -35 -10 -46 -60
-46 -49 0 -90 40 -54 53 8 3 20 -1 26 -9 13 -15 50 -19 50 -6 0 5 -18 17 -40
27 -47 21 -59 48 -34 76 20 22 83 26 102 7z m232 -8 c0 -17 -7 -20 -40 -20
-22 0 -40 -4 -40 -10 0 -5 11 -10 24 -10 23 0 41 -22 29 -34 -4 -3 -17 -6 -30
-6 -19 0 -23 -5 -23 -31 0 -26 -3 -30 -22 -27 -21 3 -23 8 -24 81 l-2 77 64 0
c57 0 64 -2 64 -20z m149 10 c31 -16 46 -65 31 -100 -34 -83 -160 -60 -160 29
0 64 70 103 129 71z m169 -6 c25 -17 28 -44 10 -74 -10 -16 -10 -24 0 -40 16
-26 15 -30 -6 -30 -11 0 -24 11 -30 25 -15 33 -42 33 -42 -1 0 -20 -4 -25 -21
-22 -19 3 -22 10 -24 56 -4 92 1 102 49 102 23 0 52 -7 64 -16z m260 -4 c29
-27 28 -40 -3 -40 -14 0 -25 5 -25 10 0 6 -13 10 -30 10 -23 0 -31 -5 -36 -25
-3 -14 -4 -32 0 -40 7 -20 65 -20 72 0 8 19 44 20 44 0 0 -26 -42 -55 -79 -55
-42 1 -66 17 -80 53 -29 77 76 143 137 87z m189 -2 c51 -48 15 -138 -54 -138
-71 0 -110 59 -79 118 18 35 28 40 75 41 23 1 43 -7 58 -21z m109 -28 c10 -27
21 -50 24 -50 3 0 14 23 25 50 15 40 24 50 42 50 22 0 23 -3 23 -80 0 -72 -2
-80 -19 -80 -15 0 -21 8 -24 33 l-3 32 -13 -32 c-8 -20 -20 -33 -31 -33 -11 0
-23 13 -31 33 l-13 32 -3 -32 c-3 -25 -9 -33 -24 -33 -17 0 -19 8 -19 80 0 78
1 80 24 80 20 0 27 -9 42 -50z m242 34 c44 -30 14 -94 -45 -94 -18 0 -23 -6
-23 -25 0 -19 -5 -25 -22 -25 -21 0 -23 4 -21 57 1 32 2 68 2 81 1 19 6 22 44
22 23 0 53 -7 65 -16z m179 -61 c29 -74 29 -78 11 -81 -11 -2 -25 3 -31 12
-19 24 -67 25 -67 1 0 -9 -10 -15 -26 -15 -17 0 -24 4 -21 13 55 139 60 147
81 147 18 0 28 -13 53 -77z m117 37 c38 -51 50 -51 41 0 -6 38 -6 40 20 40
l26 0 -2 -80 c-2 -74 -3 -80 -23 -80 -13 0 -33 16 -51 41 l-30 41 -3 -41 c-3
-33 -7 -41 -23 -41 -17 0 -19 7 -19 80 0 70 2 80 18 80 9 0 30 -18 46 -40z
m138 -40 c3 -77 2 -80 -19 -80 -22 0 -23 4 -23 80 0 72 2 80 19 80 17 0 20 -9
23 -80z m144 60 c0 -17 -7 -20 -43 -20 -24 0 -43 -4 -43 -10 0 -5 14 -10 30
-10 23 0 30 -4 30 -20 0 -16 -7 -20 -30 -20 -46 0 -36 -18 12 -22 30 -2 42 -8
44 -20 2 -16 -7 -18 -62 -18 l-64 0 0 80 0 80 63 0 c56 0 63 -2 63 -20z"/>
<path d="M4010 3901 c0 -6 4 -11 9 -11 5 0 12 -10 14 -22 4 -22 4 -22 6 -2 0
12 -6 27 -14 34 -10 9 -15 9 -15 1z"/>
<path d="M4032 3660 c0 -14 2 -19 5 -12 2 6 2 18 0 25 -3 6 -5 1 -5 -13z"/>
<path d="M2783 1967 c-3 -6 -1 -7 5 -3 7 4 12 2 12 -3 0 -13 27 -15 34 -2 3 5
-6 11 -19 14 -14 2 -28 0 -32 -6z"/>
<path d="M2800 1920 c0 -5 5 -10 10 -10 6 0 10 5 10 10 0 6 -4 10 -10 10 -5 0
-10 -4 -10 -10z"/>
<path d="M2780 1910 c-7 -41 -7 -61 2 -52 5 5 8 22 5 38 -2 16 -5 22 -7 14z"/>
<path d="M2847 1913 c-2 -5 -2 -30 1 -57 l4 -49 51 6 c53 7 67 18 67 54 0 34
-27 53 -75 53 -24 0 -46 -3 -48 -7z"/>
<path d="M2800 1889 c0 -5 5 -7 10 -4 6 3 10 8 10 11 0 2 -4 4 -10 4 -5 0 -10
-5 -10 -11z"/>
<path d="M2770 1751 c0 -22 5 -43 10 -46 6 -4 10 10 10 34 0 22 -4 43 -10 46
-6 4 -10 -10 -10 -34z"/>
<path d="M2817 1763 c-4 -3 -7 -11 -7 -17 0 -6 5 -5 12 2 6 6 9 14 7 17 -3 3
-9 2 -12 -2z"/>
<path d="M2848 1763 c7 -3 16 -2 19 1 4 3 -2 6 -13 5 -11 0 -14 -3 -6 -6z"/>
<path d="M2770 1666 c0 -16 34 -31 50 -21 5 3 10 12 10 18 0 8 -3 8 -8 2 -12
-16 -32 -16 -32 0 0 8 -4 15 -10 15 -5 0 -10 -6 -10 -14z"/>
<path d="M3302 1850 c-26 -67 -26 -70 7 -70 34 0 36 7 16 60 l-13 35 -10 -25z"/>
<path d="M5266 1971 c-4 -7 -5 -15 -2 -18 9 -9 19 4 14 18 -4 11 -6 11 -12 0z"/>
<path d="M5256 1890 c3 -25 10 -49 16 -55 9 -10 4 22 -13 75 -6 17 -7 10 -3
-20z"/>
<path d="M5232 1870 c0 -14 2 -19 5 -12 2 6 2 18 0 25 -3 6 -5 1 -5 -13z"/>
<path d="M5212 1800 c0 -19 2 -27 5 -17 2 9 2 25 0 35 -3 9 -5 1 -5 -18z"/>
<path d="M5222 1670 c0 -14 2 -19 5 -12 2 6 2 18 0 25 -3 6 -5 1 -5 -13z"/>
<path d="M5151 1664 c0 -11 3 -14 6 -6 3 7 2 16 -1 19 -3 4 -6 -2 -5 -13z"/>
<path d="M2264 1425 c-4 -9 -2 -21 4 -27 15 -15 44 -1 40 19 -4 23 -36 29 -44
8z"/>
<path d="M2473 1425 c-7 -19 -1 -26 24 -29 23 -4 35 14 21 31 -14 18 -37 16
-45 -2z"/>
<path d="M3320 1395 c0 -8 4 -15 10 -15 5 0 7 7 4 15 -4 8 -8 15 -10 15 -2 0
-4 -7 -4 -15z"/>
<path d="M3800 1421 c0 -22 23 -34 38 -19 15 15 3 38 -19 38 -12 0 -19 -7 -19
-19z"/>
<path d="M4470 1415 c-7 -8 -10 -25 -6 -40 5 -20 13 -25 36 -25 35 0 52 25 39
58 -10 26 -50 30 -69 7z"/>
<path d="M4650 1414 c0 -20 4 -25 16 -20 9 3 20 6 25 6 15 0 10 27 -7 34 -27
11 -34 7 -34 -20z"/>
<path d="M5071 1408 c-14 -36 5 -60 42 -56 25 2 33 8 35 26 7 49 -60 75 -77
30z"/>
<path d="M5450 1417 c0 -16 6 -23 21 -24 24 -2 38 25 18 38 -24 15 -39 10 -39
-14z"/>
<path d="M5636 1401 c-4 -7 -5 -15 -2 -18 9 -9 19 4 14 18 -4 11 -6 11 -12 0z"/>
</g>
</svg>
