<?xml version="1.0" encoding="UTF-8"?>
<svg id="Livello_3" data-name="Livello 3" xmlns="http://www.w3.org/2000/svg" viewBox="0 0 842 595">
  <defs>
    <style>
      .cls-1 {
        fill: #78b8b1;
      }
    </style>
  </defs>
  <g>
    <path class="cls-1" d="M375,307s0,0,0,0h0c0,1,0,2,0,2,7,13,19,24,34,28,25,8,52,5,56-25,3-24-18-36-38-4-15-3-32,0-43,9-4,3-7,7-9,12,0,1-2,2-3,1-1,0-2-2-1-4,3-5,7-9,11-12,4-3,8-5,13-6,11-3,22-4,33-1,1,2,2,6,28,13,13,11,14,29,6,43-11,2-38,18-57,12-14-5-26-15-34-27,0,0,0-1,0-1,0,0,0-1,0-2,0-2,0-4,2-5,1,0,2,0,3,1h0Z"/>
    <path class="cls-1" d="M45,331s0,0,0,0h0s1,0,2,0c15,0,3-5,41-15,19-18,3-43,6-62-19-15-4-2-54,13-1,11-16,27-14,42,0,5,3,1,6,13,0,1,0,3,0,4-1,0-3,0-4,0-3-5-4-1-5-16,0-5,0-9,0-14,2-11,8-21,15-29,7-8,15-15,25-18,16-6,32,2,4,16,12,2-4,42-18,56-11,9-26,15-41,15,0,0-1,0-2,0,0,0-1,0-2,0-2,0-4-2-3-4,0-1,2-2,3-2h1Z"/>
    <path class="cls-1" d="M508,279s0,0,0,0h0c0,0,0-2,1-2,8-13,11-29,8-43-6-25-22-47-5-36-22,9-22,33-15,53,5,14,15,28,3,33,5,2,1,2,14,2,1,0,3,0,3,2,0,2-1,3-3,3-6,0-11-2-16-4-4-2-8-5-12-8-8-8-14-17-18-28-3-1-5-2-3-31,3-17,18-26,34-27,23,0,35,24,39,44,2,14,0,3-7,43,0,0,0,1,0,1,0,0,0,1-1,1-1,2-3,3-5,0,0,0,0-2,0-3h0Z"/>
    <path class="cls-1" d="M491,202s0,0,0,0h0c0-1,0-2,0-2-7-13-19-24-34-28-25-8-52-5-56,25-3,24,18,36,38,4,15,3,32,0,43-9,4-3,7-7,9-12,0-1,2-2,3-1,1,0,2,2,1,4-3,5-7,9-11,12-4,3-8,5-13,6-11,3-22,4-33,1-1-2-2-6-28-13-13-11-14-29-6-43,11-2,38-18,57-12,14,5,26,15,34,27,0,0,0,1,0,1,0,0,0,1,0,2,0,2,0,4-2,5-1,0-2,0-3-1h0Z"/>
    <path class="cls-1" d="M417,178s0,0,0,0h0s-1,0-2,0c-15,0-3,5-41,15-19,18-3,43-6,62,19,15,4,2,54-13,1-11,16-27,14-42,0-5-3-1-6-13,0-1,0-3,0-4,1,0,3,0,4,0,3,5,4,1,5,16,0,5,0,9,0,14-2,11-8,21-15,29-7,8-15,15-25,18-16,6-32-2-4-16-12-2,4-42,18-56,11-9,26-15,41-15,0,0,1,0,2,0,0,0,1,0,2,0,2,0,4,2,3,4,0,1-2,2-3,2h-1Z"/>
    <path class="cls-1" d="M359,231s0,0,0,0h0c0,0,0,2-1,2-8,13-11,29-8,43,6,25,22,47,5,36,22-9,22-33,15-53-5-14-15-28-3-33-5-2-1-2-14-2-1,0-3,0-3-2,0-2,1-3,3-3,6,0,11,2,16,4,4,2,8,5,12,8,8,8,14,17,18,28,3,1,5,2,3,31-3,17-18,26-34,27-23,0-35-24-39-44-2-14,0-3,7-43,0,0,0-1,0-1,0,0,0-1,1-1,1-2,3-3,5,0,0,0,0,2,0,3h0Z"/>
  </g>
  <g>
    <path class="cls-1" d="M22,376h-11v6h11v8h-11v6h11v8h-21v-36h21v8Z"/>
    <path class="cls-1" d="M253,38c-2-3-5-4-8-4s-3,0-4,0c-1,0-2,1-3,2,0,0-2,2-2,3,0,1,0,3,0,4s0,3,0,4c0,1,1,2,2,3,0,0,2,2,3,2,1,0,2,0,4,0s6-1,8-4v11h0c-1,0-3,1-4,1-1,0-2,0-4,0s-5,0-7-1c-2,0-4-2-6-4s-3-4-4-6c-1-2-2-5-2-8s0-5,2-8c1-2,2-4,4-6,2-2,4-3,6-4,2,0,5-1,7-1s3,0,4,0c1,0,3,0,4,1v11Z"/>
    <path class="cls-1" d="M257,386c0-3,0-5,1-8,0-2,2-4,4-6,2-2,4-3,6-4,2,0,5-1,8-1s6,0,8,1c2,0,5,2,6,4,2,2,3,4,4,6,0,2,1,5,1,8s0,5-1,8c0,2-2,4-4,6-2,2-4,3-6,4-2,0-5,1-8,1s-6,0-8-1c-2,0-5-2-6-4-2-2-3-4-4-6,0-2-1-5-1-8Zm1,0c0,1,0,3,0,4,0,1,1,2,2,3,0,0,2,2,3,2,1,0,3,0,4,0s3,0,4,0c1,0,2-1,3-2,0,0,2-2,2-3,0-1,0-3,0-4s0-3,0-4c0-1-1-2-2-3,0,0-2-2-3-2-1,0-3,0-4,0s-3,0-4,0c-1,0-2,1-3,2,0,0-2,2-2,3,0,1,0,3,0,4Z"/>
    <path class="cls-1" d="M334,404h-12l-9-14v14h-9v-36h15c2,0,4,0,5,0,2,0,3,1,4,2,0,1,2,2,2,4,0,1,0,3,0,4s0,5-2,7c-1,2-3,3-6,3l11,15Zm-21-2h2c2,0,3,0,4-1,0,0,1-2,1-3s0-3-1-3c0,0-2-1-4-1h-2v9Z"/>
    <path class="cls-1" d="M36,398h-13l-2,6h-1l14-36h1l14,36h-1l-2-6Zm-2-7l-4-12-4,12h8Z"/>
    <path class="cls-1" d="M406,404v-36h9l17,22v-22h9v36h-9l-17-22v22h-9Z"/>
    <path class="cls-1" d="M47,376h-11v6h11v8h-11v6h11v8h-21v-36h21v8Z"/>
    <path class="cls-1" d="M491,376v28h-9v-28h-8v-8h25v8h-8Z"/>
    <path class="cls-1" d="M511,368l6,23,8-23h7l8,23,6-23h1l-11,36h-1l-7-21-7,21h-1l-11-36h1Z"/>
    <path class="cls-1" d="M557,386c0-3,0-5,1-8,0-2,2-4,4-6,2-2,4-3,6-4,2,0,5-1,8-1s6,0,8,1c2,0,5,2,6,4,2,2,3,4,4,6,0,2,1,5,1,8s0,5-1,8c0,2-2,4-4,6-2,2-4,3-6,4-2,0-5,1-8,1s-6,0-8-1-5-2-6-4c-2-2-3-4-4-6,0-2-1-5-1-8Zm1,0c0,1,0,3,0,4,0,1,1,2,2,3,0,0,2,2,3,2,1,0,3,0,4,0s3,0,4,0c1,0,2-1,3-2,0,0,2-2,2-3,0-1,0-3,0-4s0-3,0-4c0-1-1-2-2-3,0,0-2-2-3-2-1,0-3,0-4,0s-3,0-4,0-2,1-3,2c0,0-2,2-2,3,0,1,0,3,0,4Z"/>
    <path class="cls-1" d="M633,404h-12l-9-14v14h-9v-36h15c2,0,4,0,5,0,2,0,3,1,4,2,0,1,2,2,2,4s0,3,0,4,0,5-2,7-3,3-6,3l11,15Zm-21-2h2c2,0,3,0,4-1,0,0,1-2,1-3s0-3-1-3c0,0-2-1-4-1h-2v9Z"/>
    <path class="cls-1" d="M647,383l11-15h12l-14,17,16,19h-12l-12-16v16h-9v-36h9v15Z"/>
  </g>
  <g>
    <path class="cls-1" d="M309,447h0c2-1,2-1,2-3v-9c0-2,0-2-2-2h0c0,0,7,0,7,0h0c-2,1-2,1-2,3v9c0,2,0,2,2,2h0c0,0-7,0-7,0Z"/>
    <path class="cls-1" d="M336,432c-1,0-2,0-2,2,0,0,0,2,0,4v1h-1l-1-12v5c0,2,0,3,0,4,0,1,0,2,2,2h0c0,0-6,0-6,0h0c1-1,2-1,2-2,0,0,0-2,0-4v-6c0,0,0-1,0-2,0,0-1,0-2,0h0c0,0,5,0,5,0l9,11v-4c0-2,0-3,0-4,0-1,0-2-2-2h0c0,0,6,0,6,0h0Z"/>
    <path class="cls-1" d="M346,435c0-2-1-3-3-3s-2,0-2,2,0,2,3,3c3,1,4,3,4,5s-2,5-6,5-3,0-4,0c0,0,0-3,0-4h0c0,1,2,4,4,4s2,0,2-2,0-2-3-3c-2-1-4-3-4-5s2-5,6-5,3,0,3,0c0,0,0,2,0,4h0Z"/>
    <path class="cls-1" d="M356,431c2,0,3,0,4,0,1,0,2,2,2,4s-3,5-6,5c0,0,0,0,0,0h-1s0,3,0,3c0,2,0,2,2,2h0c0,0-8,0-8,0h0c2-1,2-1,2-3v-9c0-2,0-2-2-2h0c0,0,7,0,7,0Zm-1,8s0,0,1,0,3,0,3-4-1-4-3-4,0,0,0,0c0,0,0,0,0,0v6Z"/>
    <path class="cls-1" d="M364,447h0c2-1,2-1,2-3v-9c0-2,0-2-2-2h0c0,0,7,0,7,0h0c-2,1-2,1-2,3v9c0,2,0,2,2,2h0c0,0-7,0-7,0Z"/>
    <path class="cls-1" d="M389,447s0,0,0,0c-3,0-4,0-5-2,0-1-2-3-2-4,0,0,0,0-1,0h0s0,3,0,3c0,2,0,2,2,2h0c0,0-7,0-7,0h0c2-1,2-1,2-3v-9c0-2,0-2-2-2h0c0,0,7,0,7,0,2,0,3,0,4,0,0,0,2,2,2,3s-1,3-3,4c0,0,1,2,2,3,0,1,1,2,2,2,0,0,0,0,2,1h0Zm-9-7c1,0,2,0,2,0,0,0,1-2,1-3s-1-3-3-3,0,0-1,0c0,0,0,0,0,0v6h0Z"/>
    <path class="cls-1" d="M403,443c0,0,0,3-1,4h-12c2-1,2-1,2-3v-9c0-2,0-2-2-2h0c0,0,8,0,8,0,3,0,3,0,4,0,0,0,0,2,0,4h0c0,0,0-2-1-2,0,0,0,0-2,0h-2c0,0-1,0-1,0v5h2c1,0,2,0,2-2h0v5h0c0-2,0-2-2-2h-2v4c0,2,0,2,2,2h2c1,0,2,0,2,0,0,0,1-2,1-2h0Z"/>
    <path class="cls-1" d="M412,431c3,0,5,0,7,2,1,1,2,3,2,5s-1,5-3,6c-2,1-4,2-7,2h-7c2-1,2-1,2-3v-9c0-2,0-2-2-2h0c0,0,7,0,7,0Zm-2,12c0,2,0,2,2,2s5-2,5-7,0-4-2-5c-1-1-2-1-4-1s-1,0-1,0c0,0,0,0,0,1v1Z"/>
    <path class="cls-1" d="M437,438c3,0,4,2,4,4s0,3-2,4c-1,0-3,1-5,1h-7c2-1,2-1,2-3v-9c0-2,0-2-2-2h0c0,0,7,0,7,0,2,0,3,0,4,0,0,0,1,1,1,3s-2,3-3,4Zm-3,0c2,0,3,0,3-3s-1-3-3-3,0,0-1,0c0,0,0,0,0,0v5h0Zm0,6c0,2,0,2,2,2,1,0,3-1,3-3s-1-3-4-3h0v5Z"/>
    <path class="cls-1" d="M458,432c-2,0-2,0-3,2,0,1-2,3-3,5,0,0,0,0,0,1v3c0,2,0,2,2,2h0c0,0-8,0-8,0h0c2-1,2-1,2-3v-3c0,0,0,0,0-1,0-1-2-3-3-6,0-2-1-2-3-2h0c0,0,7,0,7,0h0c-2,1-2,1-1,2,0,2,2,3,3,5,0-1,2-4,3-5,0,0,0-1-1-1h0c0,0,6,0,6,0h0Z"/>
    <path class="cls-1" d="M48,432c-1,0-2,0-2,2,0,0,0,2,0,4v1h-1l-1-12v5c0,2,0,3,0,4,0,1,0,2,2,2h0c0,0-6,0-6,0h0c1-1,2-1,2-2,0,0,0-2,0-4v-6c0,0,0-1,0-2,0,0-1,0-2,0h0c0,0,5,0,5,0l9,11v-4c0-2,0-3,0-4,0-1,0-2-2-2h0c0,0,6,0,6,0h0Z"/>
    <path class="cls-1" d="M489,447h0c2-1,2-1,1-2,0,0,0-2,0-3h-5c0,0,0,2,0,2,0,2,0,2,2,2h0c0,0-6,0-6,0h0c2-1,2-1,3-3l5-12h1c2,4,3,8,5,12,0,2,1,2,3,3h0c0,0-7,0-7,0Zm-2-11c0,2-1,3-2,5h4l-2-5Z"/>
    <path class="cls-1" d="M508,436c0-1,0-2-1-2,0,0,0,0-2,0h-2v11c0,2,0,2,2,2h0c0,0-8,0-8,0h0c2-1,2-1,2-3v-11h-1c-1,0-2,0-2,0,0,0,0,1,0,2h0c0-2,0-4,0-5h0c0,0,0,0,1,0h1c0,0,0,0,1,0h0c0,1,0,3,0,5h0Z"/>
    <path class="cls-1" d="M527,432c-2,0-2,0-2,1,0,0,0,2,0,3v3c0,2,0,4-2,6-1,1-3,2-5,2s-3,0-4-1c-1-1-2-3-2-5v-6c0-2,0-2-2-3h0c0,0,7,0,7,0h0c-2,1-2,1-2,3v6c0,3,1,4,4,4s4-2,4-6v-3c0-2,0-3,0-3,0-1,0-1-2-1h0c0,0,6,0,6,0h0Z"/>
    <path class="cls-1" d="M544,447s0,0,0,0c-3,0-4,0-5-2,0-1-2-3-2-4,0,0,0,0-1,0h0s0,3,0,3c0,2,0,2,2,2h0c0,0-7,0-7,0h0c2-1,2-1,2-3v-9c0-2,0-2-2-2h0c0,0,7,0,7,0,2,0,3,0,4,0,0,0,2,2,2,3s-1,3-3,4c0,0,1,2,2,3,0,1,1,2,2,2,0,0,0,0,2,1h0Zm-9-7c1,0,2,0,2,0,0,0,1-2,1-3s-1-3-3-3,0,0-1,0c0,0,0,0,0,0v6h0Z"/>
    <path class="cls-1" d="M558,443c0,0,0,3-1,4h-12c2-1,2-1,2-3v-9c0-2,0-2-2-2h0c0,0,8,0,8,0,3,0,3,0,4,0,0,0,0,2,0,4h0c0,0,0-2-1-2,0,0,0,0-2,0h-2c0,0-1,0-1,0v5h2c1,0,2,0,2-2h0v5h0c0-2,0-2-2-2h-2v4c0,2,0,2,2,2h2c1,0,2,0,2,0,0,0,1-2,1-2h0Z"/>
  </g>
</svg>